<svg xmlns="http://www.w3.org/2000/svg" role="img" aria-label="tripaulx" width="180" height="42" viewBox="0 0 180 42"><g fill="#000000" transform="translate(0 0) scale(1.0000)"><path d="M19.75 0C30.6571 0.000224598 39.499 8.84207 39.499 19.75V39.499H19.75C8.84207 39.499 0.000224611 30.6571 0 19.75C0 8.84195 8.84195 0 19.75 0ZM17.8701 17.8701H10.8057V21.8457H17.8701V28.9082H21.8457V21.8457H28.9082V17.8701H21.8457V10.8057H17.8701V17.8701Z"/><path d="M160.406 35.6817L166 26.399L160.423 16.9961H167.287L170.067 22.9673H170.187L172.949 16.9961H179.504L173.91 26.2617L179.487 35.6817H172.915L169.843 29.5216H169.724L166.704 35.6817H160.406Z"/><path d="M152.463 35.6814V10.9214H158.554V35.6814H152.463Z"/><path d="M137.534 36.0765C133.433 36.0765 131.1 33.451 131.1 29.0241V16.9961H137.191V27.7201C137.191 29.8648 138.186 31.1348 140.194 31.1348C142.115 31.1348 143.334 29.6762 143.334 27.5998V16.9961H149.408V35.6817H143.334V32.3872H143.214C142.27 34.7378 140.365 36.0765 137.534 36.0765Z"/><path d="M116.721 35.9389C112.963 35.9389 110.406 33.5538 110.406 30.2936V30.2763C110.406 26.759 113.117 24.7856 117.939 24.4597L122.194 24.1852V23.2586C122.194 21.9029 121.319 21.0623 119.621 21.0623C117.99 21.0623 117.029 21.8173 116.824 22.7782L116.789 22.9498H111.316L111.333 22.7266C111.624 19.0889 114.73 16.6011 119.929 16.6011C124.957 16.6011 128.268 19.1405 128.268 22.9325V35.6814H122.194V33.039H122.074C121.01 34.8748 119.157 35.9389 116.721 35.9389ZM116.377 29.8991C116.377 31.0659 117.356 31.735 118.848 31.735C120.804 31.735 122.194 30.5682 122.194 28.9896V27.7369L118.917 27.9601C117.218 28.063 116.377 28.7664 116.377 29.8818V29.8991Z"/><path d="M89.4219 41.6869V16.9959H95.513V20.3244H95.6503C96.5939 17.9908 98.5843 16.6011 101.244 16.6011C105.963 16.6011 108.708 20.153 108.708 26.3301V26.3472C108.708 32.4899 105.98 36.0762 101.313 36.0762C98.6189 36.0762 96.5599 34.7205 95.633 32.4726H95.513V41.6869H89.4219ZM99.0134 31.1345C101.158 31.1345 102.531 29.2984 102.531 26.3472V26.3301C102.531 23.3443 101.158 21.5598 99.0134 21.5598C96.903 21.5598 95.4787 23.3616 95.4787 26.3472V26.3642C95.4787 29.3155 96.8857 31.1345 99.0134 31.1345Z"/><path d="M83.4161 14.9885C81.6662 14.9885 80.3105 13.6158 80.3105 11.9859C80.3105 10.3557 81.6662 9 83.4161 9C85.1836 9 86.522 10.3557 86.522 11.9859C86.522 13.6158 85.1836 14.9885 83.4161 14.9885ZM80.3792 35.6818V16.9962H86.4533V35.6818H80.3792Z"/><path d="M66.498 35.6814V16.9959H72.5892V20.3073H72.7092C73.2242 17.9394 74.6996 16.6011 76.8959 16.6011C77.4796 16.6011 78.0113 16.6867 78.4745 16.8413V22.0402C77.96 21.8343 77.2564 21.697 76.5357 21.697C73.9792 21.697 72.5892 23.1043 72.5892 25.7638V35.6814H66.498Z"/><path d="M61.1284 36.0763C56.5985 36.0763 54.5395 34.4461 54.5395 30.225V21.4571H52V16.9959H54.5395V12.689H60.6306V16.9959H63.9767V21.4571H60.6306V29.4014C60.6306 31.0143 61.3516 31.615 62.8442 31.615C63.3247 31.615 63.6335 31.5804 63.9767 31.5291V35.8531C63.3074 35.973 62.3981 36.0763 61.1284 36.0763Z"/></g></svg>